<svg xmlns="http://www.w3.org/2000/svg" viewBox="0 0 568 501" role="img" aria-label="Bluesky">
  <!--
    Official Bluesky butterfly mark.
    Source: https://bsky.social/about/blog/press-kit (Bluesky brand kit)
    Color: #1185FE (official Bluesky blue).
    Used within Bluesky brand guidelines: monochrome brand color, unmodified shape.
  -->
  <path fill="#1185FE" d="M123.121 33.664C177.771 75.216 236.525 159.393 256 206.29C275.475 159.393 334.229 75.216 388.879 33.664C422.418 9.285 480 -16.957 480 53.25C480 66.952 472.605 153.876 468.377 169.687C454.079 220.515 408.39 234.048 357.56 225.115C446.372 241.38 467.402 295.063 421.765 347.894C362.745 416.564 332.01 380.817 317.611 316.867C309.538 281.093 304.156 255.59 256 255.59C207.844 255.59 202.462 281.093 194.389 316.867C179.99 380.817 149.255 416.564 90.235 347.894C44.598 295.063 65.628 241.38 154.44 225.115C103.61 234.048 57.921 220.515 43.623 169.687C39.395 153.876 32 66.952 32 53.25C32 -16.957 89.582 9.285 123.121 33.664Z"/>
</svg>
